<!-- Generated by IcoMoon.io -->
<svg version="1.1" xmlns="http://www.w3.org/2000/svg" width="1024" height="1024" viewBox="0 0 1024 1024">
<title></title>
<g id="icomoon-ignore">
</g>
<path fill="#fff" d="M512 96c-212.064 0-384 171.936-384 384 0 70.688 57.312 128 128 128h122.176l-37.6 206.816c-10.72 58.944 34.56 113.184 94.464 113.184h153.952c59.904 0 105.152-54.24 94.464-113.184l-37.632-206.816h122.176c70.688 0 128-57.312 128-128 0-212.064-171.936-384-384-384zM608 160c0 52.928-43.072 96-96 96s-96-43.072-96-96c0-6.272 0.704-12.544 2.112-18.912 1.44-0.384 2.88-0.736 4.32-1.12 12.032-3.2 24.192-5.632 36.416-7.52 3.232-0.48 6.432-1.088 9.664-1.472 14.432-1.824 28.96-2.976 43.488-2.976s29.056 1.152 43.488 2.976c3.264 0.416 6.464 0.992 9.664 1.472 12.224 1.888 24.384 4.352 36.416 7.52 1.44 0.384 2.88 0.704 4.32 1.12 1.408 6.368 2.112 12.64 2.112 18.912zM651.936 820.544c3.392 18.72-1.632 37.856-13.824 52.448s-30.112 23.008-49.152 23.008h-153.952c-19.040 0-36.928-8.384-49.152-23.008s-17.248-33.728-13.824-52.448l38.688-212.544h202.592l38.624 212.544zM768 576h-512c-52.928 0-96-43.072-96-96 0-149.184 93.472-276.672 224.768-327.84-0.192 2.624-0.768 5.152-0.768 7.84 0 70.688 57.312 128 128 128s128-57.312 128-128c0-2.688-0.512-5.216-0.768-7.84 131.328 51.168 224.768 178.656 224.768 327.84 0 52.928-43.072 96-96 96zM352 288c-53.024 0-96 42.976-96 96s42.976 96 96 96 96-42.976 96-96-42.976-96-96-96zM352 448c-35.296 0-64-28.704-64-64s28.704-64 64-64 64 28.704 64 64c0 35.296-28.704 64-64 64zM672 288c-53.024 0-96 42.976-96 96s42.976 96 96 96 96-42.976 96-96-42.976-96-96-96zM672 448c-35.296 0-64-28.704-64-64s28.704-64 64-64 64 28.704 64 64c0 35.296-28.704 64-64 64z"></path>
</svg>
