<!-- Generated by IcoMoon.io -->
<svg version="1.1" xmlns="http://www.w3.org/2000/svg" width="1024" height="1024" viewBox="0 0 1024 1024">
<title></title>
<g id="icomoon-ignore">
</g>
<path fill="#fff" d="M960 512c0-66.976-51.648-121.344-117.184-126.912l-20.608-154.464c-12.704-95.392-94.080-166.624-190.304-166.624h-239.808c-96.224 0-177.6 71.232-190.304 166.624l-20.608 154.464c-65.536 5.568-117.184 59.904-117.184 126.912 0 40.032 18.752 75.328 47.52 98.784l-41.312 247.936c-3.264 19.52 11.776 37.28 31.552 37.28h26.24v32c0 17.664 14.336 32 32 32h64c17.664 0 32-14.336 32-32v-32h512v32c0 17.664 14.336 32 32 32h64c17.664 0 32-14.336 32-32v-32h26.272c19.776 0 34.816-17.76 31.552-37.248l-41.344-247.968c28.768-23.488 47.52-58.784 47.52-98.784zM224 928h-64v-32h64v32zM288 864h-186.24l44.384-266.272-14.4-11.744c-22.72-18.528-35.744-45.504-35.744-73.984 0-52.928 43.072-96 96-96s96 43.072 96 96v352zM704 864h-384v-224h384c0 79.456 0 175.2 0 224zM704 608h-384v-64h384c0 16.672 0 38.816 0 64zM704 512h-384c0-63.392-46.176-115.648-106.656-125.856l20.16-151.296c10.56-79.168 78.752-138.848 158.592-138.848h239.808c79.872 0 148.032 59.68 158.592 138.848l20.16 151.296c-60.48 10.208-106.656 62.464-106.656 125.856zM864 928h-64v-32h64v32zM922.272 864h-186.272v-352c0-52.928 43.072-96 96-96s96 43.072 96 96c0 28.48-13.024 55.456-35.744 73.984l-14.4 11.744 44.416 266.272zM545.952 315.328c6.24 6.24 6.24 16.384 0 22.624s-16.384 6.24-22.624 0l-11.328-11.328-11.328 11.328c-6.24 6.24-16.384 6.24-22.624 0s-6.24-16.384 0-22.624l11.328-11.328-11.328-11.328c-6.24-6.24-6.24-16.384 0-22.624s16.384-6.24 22.624 0l11.328 11.328 11.328-11.328c6.24-6.24 16.384-6.24 22.624 0s6.24 16.384 0 22.624l-11.328 11.328 11.328 11.328z"></path>
</svg>
