<svg width="48" height="48" viewBox="0 0 48 48" fill="none" xmlns="http://www.w3.org/2000/svg">
<path d="M47.625 24C47.625 20.4681 44.9014 17.601 41.4454 17.3074L40.3586 9.16181C39.6887 4.13137 35.3974 0.375 30.3231 0.375H17.6769C12.6026 0.375 8.31131 4.13137 7.64138 9.16181L6.55463 17.3074C3.09863 17.601 0.375 20.4664 0.375 24C0.375 26.1111 1.36387 27.9724 2.88094 29.2093L0.702375 42.2841C0.53025 43.3134 1.32338 44.25 2.36625 44.25H3.75V45.9375C3.75 46.869 4.506 47.625 5.4375 47.625H8.8125C9.744 47.625 10.5 46.869 10.5 45.9375V44.25H37.5V45.9375C37.5 46.869 38.256 47.625 39.1875 47.625H42.5625C43.494 47.625 44.25 46.869 44.25 45.9375V44.25H45.6354C46.6783 44.25 47.4714 43.3134 47.2993 42.2858L45.1191 29.2093C46.6361 27.9707 47.625 26.1094 47.625 24ZM8.8125 45.9375H5.4375V44.25H8.8125V45.9375ZM12.1875 42.5625H2.36625L4.70681 28.5208L3.94744 27.9015C2.74931 26.9244 2.0625 25.5019 2.0625 24C2.0625 21.2089 4.33387 18.9375 7.125 18.9375C9.91613 18.9375 12.1875 21.2089 12.1875 24V42.5625ZM34.125 42.5625H13.875V30.75H34.125C34.125 34.9401 34.125 39.9891 34.125 42.5625ZM34.125 29.0625H13.875V25.6875H34.125C34.125 26.5667 34.125 27.7344 34.125 29.0625ZM34.125 24H13.875C13.875 20.6571 11.4399 17.9014 8.25056 17.3631L9.31369 9.38456C9.87056 5.20969 13.4666 2.0625 17.6769 2.0625H30.3231C34.5351 2.0625 38.1294 5.20969 38.6863 9.38456L39.7494 17.3631C36.5601 17.9014 34.125 20.6571 34.125 24ZM42.5625 45.9375H39.1875V44.25H42.5625V45.9375ZM45.6354 42.5625H35.8125V24C35.8125 21.2089 38.0839 18.9375 40.875 18.9375C43.6661 18.9375 45.9375 21.2089 45.9375 24C45.9375 25.5019 45.2507 26.9244 44.0526 27.9015L43.2932 28.5208L45.6354 42.5625ZM25.7904 13.6286C26.1195 13.9577 26.1195 14.4926 25.7904 14.8217C25.4614 15.1508 24.9264 15.1508 24.5974 14.8217L24 14.2243L23.4026 14.8217C23.0736 15.1508 22.5386 15.1508 22.2096 14.8217C21.8805 14.4926 21.8805 13.9577 22.2096 13.6286L22.8069 13.0312L22.2096 12.4339C21.8805 12.1048 21.8805 11.5699 22.2096 11.2408C22.5386 10.9117 23.0736 10.9117 23.4026 11.2408L24 11.8382L24.5974 11.2408C24.9264 10.9117 25.4614 10.9117 25.7904 11.2408C26.1195 11.5699 26.1195 12.1048 25.7904 12.4339L25.1931 13.0312L25.7904 13.6286Z" fill="#FF7BAC"/>
</svg>
