<!-- Generated by IcoMoon.io -->
<svg version="1.1" xmlns="http://www.w3.org/2000/svg" width="1024" height="1024" viewBox="0 0 1024 1024">
<title></title>
<g id="icomoon-ignore">
</g>
<path fill="#fff" d="M640 336c0 8.832-7.168 16-16 16h-96c-8.832 0-16-7.168-16-16s7.168-16 16-16h96c8.832 0 16 7.168 16 16zM400 352h-64c-8.832 0-16 7.168-16 16s7.168 16 16 16h64c8.832 0 16-7.168 16-16s-7.168-16-16-16zM400 416h-64c-8.832 0-16 7.168-16 16s7.168 16 16 16h64c8.832 0 16-7.168 16-16s-7.168-16-16-16zM880.608 506.368l-95.616 8.352c-8.768 0.768-15.328 8.544-14.528 17.344 0.704 8.32 7.712 14.592 15.904 14.592 0.48 0 0.928-0.032 1.44-0.064l95.616-8.352c8.768-0.768 15.328-8.544 14.528-17.344-0.8-8.768-8.256-15.328-17.344-14.528zM990.976 850.048c4.608 52.832-34.464 99.392-87.264 104l-63.744 5.568c-2.848 0.256-5.664 0.384-8.48 0.384-49.248 0-91.168-37.664-95.52-87.648l-31.968-365.344v356.992c0 53.024-42.976 96-96 96h-64c-33.44 0-62.816-17.12-80-43.040-17.184 25.92-46.56 43.040-80 43.040h-32c-33.44 0-62.816-17.12-80-43.040-17.184 25.92-46.56 43.040-80 43.040h-64c-53.024 0-96-42.976-96-96v-640c0-53.024 42.976-96 96-96h64c53.024 0 96 42.976 96 96v56.928c17.024-15.328 39.296-24.928 64-24.928h32c24.704 0 46.976 9.6 64 24.928v-88.928c0-53.024 42.976-96 96-96h64c53.024 0 96 42.976 96 96v227.968c11.552-35.552 43.392-62.592 82.976-66.048l63.744-5.568c2.848-0.256 5.664-0.384 8.48-0.384 49.248 0 91.168 37.664 95.52 87.648l36.256 414.432zM256 864v-640c0-35.296-28.704-64-64-64h-64c-35.296 0-64 28.704-64 64v640c0 35.296 28.704 64 64 64h64c35.296 0 64-28.704 64-64zM448 352c0-35.296-28.704-64-64-64h-32c-35.296 0-64 28.704-64 64v512c0 35.296 28.704 64 64 64h32c35.296 0 64-28.704 64-64v-512zM672 192c0-35.296-28.704-64-64-64h-64c-35.296 0-64 28.704-64 64v672c0 35.296 28.704 64 64 64h64c35.296 0 64-28.704 64-64v-672zM959.104 852.832l-36.256-414.432c-2.88-32.768-30.816-58.432-63.648-58.432-1.888 0-3.776 0.096-5.696 0.256l-63.744 5.568c-17.024 1.504-32.448 9.536-43.456 22.624-10.976 13.088-16.224 29.696-14.72 46.72l36.256 414.432c2.88 32.768 30.816 58.432 63.648 58.432 1.888 0 3.776-0.096 5.696-0.256l63.744-5.568c17.024-1.504 32.448-9.536 43.456-22.624s16.224-29.696 14.72-46.72zM782.176 482.848l95.648-8.384c8.768-0.768 15.328-8.544 14.528-17.344-0.736-8.768-8.192-15.328-17.344-14.528l-95.648 8.384c-8.768 0.768-15.328 8.544-14.528 17.344 0.704 8.32 7.712 14.592 15.904 14.592 0.48 0 0.96-0.032 1.44-0.064zM624 192h-96c-8.832 0-16 7.168-16 16s7.168 16 16 16h96c8.832 0 16-7.168 16-16s-7.168-16-16-16zM624 256h-96c-8.832 0-16 7.168-16 16s7.168 16 16 16h96c8.832 0 16-7.168 16-16s-7.168-16-16-16zM208 352h-96c-8.832 0-16 7.168-16 16s7.168 16 16 16h96c8.832 0 16-7.168 16-16s-7.168-16-16-16zM208 224h-96c-8.832 0-16 7.168-16 16s7.168 16 16 16h96c8.832 0 16-7.168 16-16s-7.168-16-16-16zM208 288h-96c-8.832 0-16 7.168-16 16s7.168 16 16 16h96c8.832 0 16-7.168 16-16s-7.168-16-16-16z"></path>
</svg>
