<!-- Generated by IcoMoon.io -->
<svg version="1.1" xmlns="http://www.w3.org/2000/svg" width="1024" height="1024" viewBox="0 0 1024 1024">
<g id="icomoon-ignore">
</g>
<path fill="#fff" d="M956.992 413.312c25.568-11.168 25.568-47.456 0-58.624l-406.528-177.856c-12.256-5.376-25.344-8.032-38.464-8.032s-26.208 2.688-38.464 8.064l-406.528 177.824c-25.568 11.2-25.568 47.456 0 58.624l188.992 82.688v106.24c0 36.352 20.544 69.6 53.056 85.856v0c63.904 31.936 133.408 47.904 202.944 47.904s139.040-15.968 202.912-47.904v0c32.544-16.256 53.088-49.504 53.088-85.856v-106.24l128-56v232c-17.664 0-32 14.336-32 32v96c0 17.664 14.336 32 32 32h32c17.664 0 32-14.336 32-32v-96c0-17.664-14.336-32-32-32v-246.016l28.992-12.672zM736 602.24c0 24.384-13.568 46.336-35.392 57.248-58.24 29.12-123.488 44.512-188.608 44.512s-130.368-15.392-188.608-44.512c-21.824-10.912-35.392-32.864-35.392-57.248v-92.224l185.536 81.152c12.256 5.376 25.376 8.064 38.464 8.064 13.12 0 26.208-2.688 38.464-8.064l185.536-81.184v92.256zM537.664 561.856c-8.128 3.552-16.768 5.376-25.664 5.376s-17.504-1.792-25.664-5.376l-406.496-177.856 406.496-177.856c8.16-3.552 16.768-5.344 25.664-5.344s17.504 1.792 25.664 5.376l406.496 177.824-35.776 15.648-367.776-29.408c-5.184-10.72-15.936-18.24-28.608-18.24-17.664 0-32 14.336-32 32s14.336 32 32 32c10.784 0 19.872-5.696 25.664-13.888l308.672 24.704-308.672 135.040z"></path>
</svg>
