<svg width="43" height="41" viewBox="0 0 43 41" fill="none" xmlns="http://www.w3.org/2000/svg">
<path d="M22.4139 17.8861L26.3653 13.8572C27.5425 12.6569 27.5582 10.6781 26.4009 9.45883L26.3981 9.45592C25.8073 8.85356 25.0339 8.55237 24.259 8.55237C23.4841 8.55237 22.7107 8.85356 22.1199 9.45592L21.405 10.1849L20.6901 9.45592C20.0993 8.85356 19.3259 8.55237 18.551 8.55237C17.7761 8.55237 17.0027 8.85356 16.4119 9.45592L16.4091 9.45883C15.2518 10.6781 15.2675 12.6569 16.4447 13.8572L20.3961 17.8861C20.9526 18.4535 21.8574 18.4535 22.4139 17.8861ZM17.4208 10.4846C17.7233 10.1776 18.1243 10.0074 18.551 10.0074C18.9777 10.0074 19.3787 10.1776 19.6812 10.4846L21.405 12.2422L23.1288 10.4846C23.4313 10.1776 23.8323 10.0074 24.259 10.0074C24.6857 10.0074 25.0867 10.1776 25.392 10.4875C25.6931 10.796 25.8601 11.2048 25.8601 11.6398C25.8601 12.0749 25.6931 12.4837 25.392 12.7922L21.405 16.8574L17.418 12.7922C17.1154 12.4837 16.9499 12.0749 16.9499 11.6398C16.9499 11.2048 17.1169 10.796 17.4208 10.4846ZM38.529 5.81992H37.102V4.36494C37.102 1.95404 35.1855 0 32.821 0H9.989C7.62446 0 5.708 1.95404 5.708 4.36494V5.81992H4.281C1.91646 5.81992 0 7.77396 0 10.1849V36.3745C0 38.7854 1.91646 40.7395 4.281 40.7395H38.529C40.8935 40.7395 42.81 38.7854 42.81 36.3745V10.1849C42.81 7.77396 40.8935 5.81992 38.529 5.81992ZM38.529 7.2749C39.057 7.2749 39.545 7.43204 39.9703 7.68666L37.102 10.6112V7.2749H38.529ZM9.989 1.45498H32.821C34.395 1.45498 35.675 2.7601 35.675 4.36494V12.0662L21.405 26.616L7.135 12.0662V4.36494C7.135 2.7601 8.41502 1.45498 9.989 1.45498ZM4.281 7.2749H5.708V10.6112L2.83973 7.68666C3.26498 7.43204 3.75301 7.2749 4.281 7.2749ZM1.427 36.3745V10.1849C1.427 9.64652 1.58112 9.14892 1.83084 8.71533L16.1151 23.2797L1.83084 37.844C1.58112 37.4105 1.427 36.9129 1.427 36.3745ZM38.529 39.2845H4.281C3.75301 39.2845 3.26498 39.1273 2.83973 38.8727L17.124 24.3084L20.3961 27.6446C20.9541 28.2135 21.8574 28.2135 22.4139 27.6446L25.686 24.3084L39.9703 38.8727C39.545 39.1273 39.057 39.2845 38.529 39.2845ZM41.383 36.3745C41.383 36.9129 41.2289 37.4105 40.9792 37.844L26.6949 23.2797L40.9792 8.71533C41.2289 9.14892 41.383 9.64652 41.383 10.1849V36.3745Z" fill="#4CBBDF"/>
</svg>
