<!-- Generated by IcoMoon.io -->
<svg version="1.1" xmlns="http://www.w3.org/2000/svg" width="1024" height="1024" viewBox="0 0 1024 1024">
<title></title>
<g id="icomoon-ignore">
</g>
<path fill="#fff" d="M576 495.968c0 97.056 78.944 176 176 176s176-78.944 176-176c0-55.392-20.896-112-176-112s-176 56.64-176 112zM896 495.968c0 79.392-64.608 144-144 144s-144-64.608-144-144c0-31.84 0-80 144-80s144 48.16 144 80zM272 384c-155.104 0-176 56.608-176 112 0 97.056 78.944 176 176 176s176-78.944 176-176c0-55.392-20.928-112-176-112zM272 639.968c-79.392 0-144-64.608-144-144 0-31.84 0-79.968 144-79.968s144 48.128 144 80c0 79.392-64.608 143.968-144 143.968zM752 320c-77.056 0-134.176 13.184-173.856 40.256-21.44-4.064-43.36-6.144-65.312-6.144-22.304 0-44.672 2.112-66.688 6.304-39.712-27.168-96.928-40.416-174.144-40.416h-240c-17.664 0-32 14.336-32 32v37.504c0 25.44 10.112 49.856 28.096 67.872l3.904 3.872v34.752c0 132.32 107.68 240 240 240 15.392 0 31.008-1.472 46.432-4.384 111.136-20.96 193.568-124.128 193.568-237.216 0 113.088 82.368 216.224 193.536 237.184 15.424 2.912 31.072 4.384 46.496 4.384 132.352 0 240-107.68 240-240v-34.752l3.872-3.872c17.984-17.984 28.096-42.4 28.096-67.872v-37.472c0-17.664-14.336-32-32-32h-240zM992 389.472c0 16.96-6.752 33.248-18.752 45.248l-13.248 13.28c0 0 0 29.856 0 48 0 114.88-93.12 208-208 208-13.248 0-26.816-1.248-40.544-3.84-96.96-18.304-168.16-106.912-167.456-205.568 0 0 0-46.592-32-46.592s-32 46.624-32 46.624c0.704 98.656-70.56 187.264-167.488 205.536-13.728 2.592-27.264 3.84-40.48 3.84-114.88 0-208-93.12-208-208-0.032-18.144-0.032-48-0.032-48l-13.248-13.248c-12-12.032-18.752-28.288-18.752-45.28v-37.472c0 0 180.032 0 240 0 68.192 0 129.088 10.56 166.432 42.784 16.096-4.64 49.408-8.672 74.368-8.672 24.512 0 49.024 2.816 72.96 8.48 37.984-32.192 98.208-42.592 166.24-42.592 59.968 0 240 0 240 0v37.472z"></path>
</svg>
