<!-- Generated by IcoMoon.io -->
<svg version="1.1" xmlns="http://www.w3.org/2000/svg" width="1024" height="1024" viewBox="0 0 1024 1024">
<title></title>
<g id="icomoon-ignore">
</g>
<path fill="#fff" d="M805.824 831.392l162.272-731.456c5.824-26.208-21.28-47.488-45.376-35.648l-801.056 394.144c-71.232 35.040-71.552 136.512-0.544 172l166.88 83.456v207.52c0 28.512 34.464 42.784 54.624 22.624l140.512-140.576 186.016 92.992c55.872 27.968 123.136-4.064 136.672-65.056zM683.52 867.872l-274.016-137.024 520.992-607.84-155.872 701.504c-9.056 40.64-53.888 61.984-91.104 43.36zM371.872 725.6l-51.872 142.016v-156.864l394.336-384.704-342.464 399.552zM135.84 487.168l741.12-364.48-576 561.92-165.504-82.752c-47.36-23.68-47.136-91.328 0.384-114.688zM343.008 898.368l49.984-139.968 60 29.984-109.984 109.984z"></path>
</svg>
