<svg width="37" height="43" viewBox="0 0 37 43" fill="none" xmlns="http://www.w3.org/2000/svg">
<path d="M22.0996 19.6761C23.1873 19.1317 23.1873 17.5813 22.0996 17.037L15.8851 13.9317L12.7771 7.71966C12.5055 7.17532 11.9816 6.90388 11.4577 6.90388C10.9338 6.90388 10.4099 7.17532 10.1383 7.71966L7.03031 13.9317L0.815745 17.0384C-0.271915 17.5828 -0.271915 19.1332 0.815745 19.6775L7.03031 22.7828L10.1383 28.9948C10.4099 29.5392 10.9338 29.8106 11.4577 29.8106C11.9816 29.8106 12.5055 29.5392 12.7771 28.9948L15.8851 22.7828L22.0996 19.6761ZM14.7856 21.6838L11.4577 28.3354L8.12978 21.6838L1.47543 18.3572L8.12978 15.0307L8.34967 14.5911L11.4488 8.38055C11.4488 8.38055 11.4533 8.37907 11.4562 8.37907L14.7841 15.0307L21.44 18.3572L14.7856 21.6838ZM36.0725 8.13714L32.1188 6.55574L30.5368 2.60371C30.2903 1.9856 29.728 1.67729 29.1672 1.67729C28.6064 1.67729 28.0441 1.98708 27.7977 2.60518L26.2156 6.55574L22.262 8.13714C21.0253 8.63133 21.0253 10.3824 22.262 10.8766L26.2156 12.4565L27.7977 16.4085C28.0456 17.0266 28.6064 17.3364 29.1672 17.3364C29.728 17.3364 30.2903 17.0266 30.5368 16.4085L32.1188 12.4565L36.0725 10.8751C37.3092 10.3809 37.3092 8.63133 36.0725 8.13714ZM31.5713 11.0875L30.9839 11.3221L30.7493 11.9092L29.1672 15.8598L27.3505 11.3206L22.811 9.50612L27.352 7.69016L27.5866 7.10303L29.1569 3.15248C29.1584 3.15248 29.1628 3.151 29.1687 3.151L30.9854 7.69016L35.5235 9.50612L31.5713 11.0875ZM28.6935 33.2154L24.7398 31.6339L23.1578 27.6819C22.9099 27.0638 22.3491 26.754 21.7883 26.754C21.2275 26.754 20.6652 27.0638 20.4187 27.6819L18.8367 31.6339L14.883 33.2154C13.6463 33.7095 13.6463 35.4606 14.883 35.9548L18.8367 37.5347L20.4187 41.4867C20.6667 42.1048 21.2275 42.4146 21.7883 42.4146C22.3491 42.4146 22.9113 42.1048 23.1578 41.4867L24.7398 37.5347L28.6935 35.9533C29.9302 35.4591 29.9302 33.7095 28.6935 33.2154ZM24.1923 36.1657L23.605 36.4003L23.3703 36.9874L21.7883 40.938L19.9715 36.3988L15.432 34.5843L19.973 32.7684L20.2077 32.1812L21.7779 28.2307C21.7794 28.2307 21.7838 28.2292 21.7897 28.2292L23.6064 32.7684L28.1445 34.5843L24.1923 36.1657ZM35.3582 23.665L33.5946 22.7828L32.7121 21.02C32.5911 20.7751 32.3549 20.6526 32.1188 20.6526C31.8827 20.6526 31.6466 20.7751 31.5241 21.02L30.643 22.7828L28.8794 23.665C28.3895 23.9099 28.3895 24.6076 28.8794 24.8525L30.643 25.7332L31.5241 27.496C31.6466 27.7409 31.8827 27.8634 32.1188 27.8634C32.3549 27.8634 32.5911 27.7409 32.7121 27.496L33.5946 25.7332L35.3582 24.8525C35.8481 24.6076 35.8481 23.9084 35.3582 23.665ZM32.4951 24.6342L32.1188 25.385L31.7425 24.6342L30.9913 24.258L31.7425 23.8818L32.1188 23.131L32.4951 23.8818L33.2463 24.258L32.4951 24.6342ZM14.1215 4.19986L15.8851 5.08055L16.7661 6.8434C16.8886 7.08828 17.1247 7.21072 17.3609 7.21072C17.597 7.21072 17.8331 7.08828 17.9541 6.8434L18.8367 5.08055L20.6002 4.19986C21.0902 3.95498 21.0902 3.25722 20.6002 3.01234L18.8367 2.13017L17.9541 0.367322C17.8331 0.122441 17.597 0 17.3609 0C17.1247 0 16.8886 0.122441 16.7661 0.367322L15.8851 2.13017L14.1215 3.01234C13.6315 3.25574 13.6315 3.95498 14.1215 4.19986ZM16.9845 3.22919L17.3609 2.47832L17.7372 3.22919L18.4884 3.60536L17.7372 3.98153L17.3609 4.73241L16.9845 3.98153L16.2334 3.60536L16.9845 3.22919ZM8.79389 33.9913L7.03031 33.1091L6.14779 31.3463C6.02677 31.1014 5.79065 30.979 5.55452 30.979C5.31839 30.979 5.08227 31.1014 4.95977 31.3463L4.07873 33.1091L2.31515 33.9913C1.82519 34.2362 1.82519 34.9339 2.31515 35.1788L4.07873 36.0595L4.95977 37.8224C5.08227 38.0672 5.31839 38.1897 5.55452 38.1897C5.79065 38.1897 6.02677 38.0672 6.14779 37.8224L7.03031 36.0595L8.79389 35.1788C9.28385 34.9339 9.28385 34.2347 8.79389 33.9913ZM5.93085 34.9605L5.55452 35.7114L5.17819 34.9605L4.42701 34.5843L5.17819 34.2082L5.55452 33.4573L5.93085 34.2082L6.68203 34.5843L5.93085 34.9605Z" fill="#7AD96A"/>
</svg>
