<svg width="203" height="124" viewBox="0 0 203 124" fill="none" xmlns="http://www.w3.org/2000/svg">
<g clip-path="url(#clip0_2_295)">
<g opacity="0.5">
<path d="M72.0053 65.0757C73.6697 65.0007 75.303 64.2012 76.3831 62.6444C77.6585 60.8046 77.7064 58.292 76.4788 56.4204C76.25 56.0704 75.9925 55.7556 75.7135 55.4766C74.03 53.793 71.5461 53.3976 69.4863 54.2888C68.2372 54.8301 66.7832 54.5176 65.8211 53.5555L60.0976 47.832C59.1355 46.8699 58.823 45.4159 59.3643 44.1668C60.2555 42.107 59.8601 39.6231 58.1766 37.9396C57.8976 37.6606 57.5827 37.4031 57.2327 37.1743C55.3611 35.9467 52.8477 35.9938 51.0087 37.27C49.4519 38.3501 48.6524 39.9834 48.5774 41.6479C48.5535 42.174 48.0617 42.6658 47.5356 42.6897C45.8712 42.7646 44.2378 43.5642 43.1577 45.121C41.8823 46.9608 41.8345 49.4733 43.0621 51.345C43.2917 51.6941 43.5491 52.009 43.8281 52.288C45.5117 53.9716 47.9955 54.3669 50.0553 53.4757C51.3045 52.9345 52.7584 53.247 53.7206 54.2091L59.444 59.9325C60.4061 60.8947 60.7186 62.3486 60.1774 63.5978C59.2862 65.6576 59.6816 68.1414 61.3651 69.825C61.6441 70.104 61.959 70.3615 62.3081 70.591C64.1798 71.8186 66.6931 71.7716 68.5321 70.4954C70.0889 69.4153 70.8885 67.7819 70.9634 66.1175C70.9873 65.5914 71.4799 65.0988 72.0053 65.0757ZM67.8904 69.5683C66.4126 70.5934 64.4181 70.6253 62.9275 69.648C62.6485 69.4647 62.391 69.2566 62.1622 69.0279C60.8446 67.7102 60.4723 65.7548 61.212 64.0458C61.9239 62.4013 61.5341 60.4284 60.2411 59.1354L54.5177 53.412C53.2248 52.119 51.2518 51.7292 49.6073 52.4411C47.8983 53.1808 45.9429 52.8085 44.6253 51.4909C44.3965 51.2621 44.1876 51.0054 44.0051 50.7256C43.0278 49.235 43.0597 47.2406 44.0848 45.7627C44.8987 44.5885 46.1757 43.879 47.5874 43.8145C48.7042 43.7642 49.6544 42.8141 49.7046 41.6973C49.7684 40.2863 50.4778 39.0093 51.6528 38.1947C53.1307 37.1695 55.1251 37.1377 56.6158 38.1149C56.8932 38.2999 57.1507 38.5079 57.3794 38.7367C58.6971 40.0544 59.0694 42.0097 58.3296 43.7188C57.6178 45.3633 58.0076 47.3362 59.3005 48.6292L65.024 54.3526C66.3169 55.6455 68.2898 56.0353 69.9343 55.3235C71.6434 54.5838 73.5988 54.956 74.9164 56.2737C75.1452 56.5025 75.3532 56.7599 75.5366 57.0389C76.5139 58.5296 76.482 60.524 75.4569 62.0019C74.643 63.1761 73.366 63.8855 71.9542 63.9501C70.8375 64.0003 69.8873 64.9505 69.8371 66.0673C69.7741 67.4774 69.0646 68.7544 67.8904 69.5683Z" fill="#fff"/>
<path d="M161.671 61.0103L162.461 61.289C162.897 61.4429 163.376 61.2137 163.53 60.7776C163.684 60.3415 163.455 59.8626 163.018 59.7087L162.228 59.43L163.343 56.2695L164.133 56.5482C164.57 56.7021 165.048 56.473 165.202 56.0368C165.356 55.6007 165.127 55.1219 164.691 54.968L163.901 54.6893L164.179 53.8991C164.39 53.3018 164.445 52.6922 164.387 52.1013L165.655 51.4948C166.072 51.2954 166.248 50.7944 166.049 50.3776C165.85 49.9607 165.349 49.784 164.932 49.9835L163.88 50.4867C163.53 49.8515 163.03 49.3001 162.385 48.9126L162.691 48.0434C162.845 47.6073 162.616 47.1285 162.18 46.9746C161.744 46.8207 161.265 47.0498 161.111 47.486L160.805 48.3551C160.073 48.2534 159.351 48.3648 158.69 48.6273L158.202 47.6076C158.003 47.1908 157.502 47.0141 157.085 47.2135C156.668 47.413 156.491 47.9139 156.691 48.3307L157.276 49.5535C156.845 49.9827 156.493 50.5018 156.278 51.1118L155.999 51.9019L155.209 51.6232C154.773 51.4693 154.294 51.6984 154.141 52.1346C153.987 52.5707 154.216 53.0496 154.652 53.2034L155.442 53.4822L154.721 55.5254L154.572 55.2133C154.372 54.7965 153.872 54.6198 153.455 54.8192C153.038 55.0186 152.861 55.5196 153.061 55.9364L153.62 57.1058C152.984 57.5229 152.172 57.6593 151.399 57.3867C150.627 57.1141 150.08 56.4983 149.848 55.7735L151.018 55.214C151.435 55.0146 151.611 54.5137 151.412 54.0968C151.213 53.68 150.712 53.5032 150.295 53.7027L149.98 53.853L151.259 50.2295L152.049 50.5082C152.485 50.6621 152.964 50.433 153.118 49.9968C153.272 49.5607 153.042 49.0818 152.606 48.928L151.816 48.6493L152.652 46.2789C152.748 46.0087 152.788 45.7332 152.852 45.4609L153.721 45.7675C154.157 45.9213 154.636 45.6922 154.79 45.2561C154.944 44.82 154.715 44.3411 154.279 44.1872L153.052 43.7546C153.05 42.6342 152.824 41.5401 152.355 40.5483L153.383 40.0563C153.8 39.8569 153.977 39.356 153.778 38.9391C153.578 38.5223 153.077 38.3455 152.66 38.545L151.459 39.1198C150.768 38.2418 149.867 37.5276 148.812 37.0169L149.119 36.1477C149.273 35.7116 149.043 35.2328 148.607 35.0789C148.171 34.925 147.692 35.1541 147.538 35.5903L147.232 36.4594C146.103 36.1981 144.97 36.1874 143.892 36.431L143.329 35.2531C143.129 34.8363 142.628 34.6596 142.212 34.859C141.795 35.0585 141.618 35.5594 141.818 35.9762L142.291 36.966C141.289 37.4441 140.415 38.1645 139.703 39.0452L138.476 38.6126C138.04 38.4587 137.561 38.6878 137.407 39.124C137.254 39.5601 137.483 40.039 137.919 40.1928L138.788 40.4994C138.667 40.7517 138.525 40.9914 138.43 41.2617L137.594 43.6321L136.804 43.3533C136.368 43.1995 135.889 43.4286 135.735 43.8647C135.581 44.3009 135.81 44.7797 136.246 44.9336L137.036 45.2123L135.922 48.3728L135.131 48.0941C134.695 47.9402 134.216 48.1693 134.063 48.6055C133.909 49.0416 134.138 49.5205 134.574 49.6743L135.364 49.9531L134.086 53.5766L133.936 53.2645C133.737 52.8476 133.236 52.6709 132.819 52.8703C132.402 53.0698 132.226 53.5707 132.425 53.9876L132.985 55.1569C132.349 55.5741 131.537 55.7105 130.764 55.4379C130.171 55.2288 129.716 54.816 129.428 54.3091C129.531 54.3029 129.636 54.2793 129.736 54.2312L131.173 53.5439C131.589 53.3445 131.766 52.8435 131.567 52.4267C131.367 52.0098 130.866 51.8331 130.449 52.0325L129.124 52.6667C129.147 52.5219 129.179 52.3751 129.23 52.2313L130.066 49.8609L131.646 50.4184C132.082 50.5722 132.561 50.3431 132.715 49.907C132.869 49.4708 132.64 48.992 132.204 48.8381L130.623 48.2806L131.738 45.1201L133.319 45.6776C133.755 45.8315 134.234 45.6024 134.387 45.1662C134.541 44.7301 134.312 44.2512 133.876 44.0974L132.296 43.5399L132.574 42.7498C132.743 42.271 132.805 41.7829 132.799 41.3026C132.808 41.3059 132.815 41.3135 132.822 41.3162C133.025 41.3876 133.254 41.3815 133.463 41.2829L134.842 40.6232C135.259 40.4237 135.436 39.9228 135.236 39.5059C135.037 39.0891 134.536 38.9124 134.119 39.1118L132.74 39.7715C132.661 39.8093 132.6 39.866 132.539 39.9228C132.217 39.0395 131.616 38.2643 130.78 37.7632L131.086 36.8941C131.24 36.4579 131.011 35.9791 130.575 35.8252C130.139 35.6714 129.66 35.9005 129.506 36.3366L129.199 37.2057C128.468 37.104 127.746 37.217 127.084 37.4795L126.597 36.4583C126.398 36.0414 125.897 35.8647 125.48 36.0641C125.063 36.2636 124.886 36.7645 125.086 37.1814L125.671 38.4041C125.24 38.8334 124.888 39.3524 124.673 39.9624L124.394 40.7525L123.604 40.4738C123.168 40.32 122.689 40.5491 122.535 40.9852C122.382 41.4214 122.611 41.9002 123.047 42.0541L123.837 42.3328L122.722 45.4933L121.932 45.2146C121.496 45.0607 121.017 45.2898 120.863 45.726C120.709 46.1621 120.938 46.641 121.374 46.7948L122.165 47.0735L121.05 50.2341L120.26 49.9553C119.823 49.8015 119.345 50.0306 119.191 50.4667C119.037 50.9029 119.266 51.3817 119.702 51.5356L120.492 51.8143L119.935 53.3945C119.745 53.9334 119.614 54.4791 119.519 55.025L118.587 54.6961C118.151 54.5422 117.672 54.7713 117.518 55.2074C117.364 55.6436 117.594 56.1224 118.03 56.2763L119.371 56.7496C119.372 57.9617 119.587 59.1515 120.003 60.2632L118.652 60.9096C118.235 61.1091 118.058 61.61 118.258 62.0269C118.358 62.2364 118.533 62.3836 118.736 62.4549C118.938 62.5263 119.168 62.5202 119.377 62.4216L120.723 61.7772C121.332 62.8308 122.137 63.7739 123.105 64.5544L122.632 65.8961C122.478 66.3322 122.707 66.811 123.144 66.9649C123.58 67.1188 124.059 66.8897 124.212 66.4535L124.541 65.5212C125.026 65.7898 125.533 66.0308 126.071 66.2209C126.577 66.3993 127.002 66.695 127.353 67.0567L126.141 67.635C125.724 67.8345 125.548 68.3354 125.747 68.7523C125.847 68.9617 126.023 69.109 126.225 69.1803C126.427 69.2517 126.657 69.2456 126.866 69.1469L128.191 68.5128C128.361 69.1449 128.351 69.8326 128.117 70.4963L127.56 72.0766L126.769 71.7978C126.333 71.644 125.854 71.8731 125.701 72.3092C125.547 72.7454 125.776 73.2242 126.212 73.3781L127.002 73.6568L125.887 76.8173L125.097 76.5386C124.661 76.3847 124.182 76.6138 124.028 77.05C123.874 77.4861 124.103 77.965 124.54 78.1188L125.62 78.5001C125.625 80.5682 126.895 82.5035 128.955 83.2305L133.696 84.9029C135.757 85.6298 137.96 84.9198 139.261 83.3122L140.342 83.6935C140.778 83.8474 141.257 83.6183 141.411 83.1821C141.565 82.746 141.336 82.2671 140.9 82.1133L140.109 81.8345L141.224 78.674L142.014 78.9528C142.451 79.1066 142.929 78.8775 143.083 78.4414C143.237 78.0052 143.008 77.5264 142.572 77.3725L141.782 77.0938L142.897 73.9333L143.687 74.212C144.123 74.3659 144.602 74.1368 144.756 73.7006C144.91 73.2645 144.68 72.7856 144.244 72.6318L143.454 72.353L144.012 70.7728C144.191 70.2639 144.49 69.8361 144.853 69.4863L145.439 70.7112C145.539 70.9207 145.715 71.0679 145.917 71.1393C146.119 71.2106 146.349 71.2046 146.558 71.1059C146.975 70.9065 147.151 70.4055 146.952 69.9887L146.313 68.6526C146.942 68.4817 147.625 68.4936 148.287 68.7272C148.826 68.9173 149.372 69.0476 149.918 69.1424L149.589 70.0748C149.435 70.5109 149.664 70.9898 150.1 71.1437C150.536 71.2975 151.015 71.0684 151.169 70.6323L151.642 69.2906C152.896 69.2886 154.122 69.0566 155.267 68.6112C155.267 68.6149 155.268 68.6186 155.269 68.6207L155.929 69.9996C156.029 70.2091 156.204 70.3563 156.407 70.4276C156.609 70.499 156.838 70.4929 157.047 70.3943C157.464 70.1948 157.641 69.6939 157.441 69.277L156.782 67.8982C156.779 67.8918 156.774 67.8901 156.772 67.8843C157.788 67.2813 158.693 66.4936 159.449 65.5554L160.789 66.0282C161.225 66.182 161.704 65.9529 161.858 65.5168C162.012 65.0806 161.782 64.6033 161.346 64.4495L160.414 64.1206C160.682 63.6361 160.923 63.1294 161.113 62.5905L161.671 61.0103ZM148.845 67.147C146.231 66.2249 143.353 67.6016 142.431 70.2153L138.529 81.2771C137.914 83.0201 135.997 83.9375 134.254 83.3226L129.513 81.6502C127.77 81.0354 126.852 79.1178 127.467 77.3748L129.697 71.0538C130.619 68.4401 129.243 65.5627 126.629 64.6406C122.272 63.1037 119.978 58.3088 121.515 53.952L126.253 40.5199C126.714 39.213 128.153 38.5247 129.46 38.9857C130.767 39.4468 131.455 40.8854 130.994 42.1923L127.649 51.6738C126.881 53.8514 128.029 56.2499 130.206 57.0181C132.384 57.7863 134.782 56.6387 135.551 54.4612L140.01 41.8191C141.086 38.7693 144.442 37.1635 147.492 38.2394C150.542 39.3153 152.148 42.6715 151.072 45.7214L148.285 53.6227C147.517 55.8003 148.664 58.1988 150.842 58.967C153.019 59.7352 155.418 58.5876 156.186 56.41L157.858 51.6693C158.319 50.3624 159.758 49.6741 161.065 50.1351C162.372 50.5961 163.06 52.0348 162.599 53.3417L159.533 62.0331C157.996 66.3898 153.201 68.6839 148.845 67.147Z" fill="#fff"/>
<path d="M114.513 1.09677C114.513 1.70219 114.021 2.19355 113.416 2.19355C112.81 2.19355 112.319 1.70219 112.319 1.09677C112.319 0.491355 112.81 0 113.416 0C114.021 0 114.513 0.491355 114.513 1.09677ZM116.706 7.67742C116.706 8.28284 116.215 8.7742 115.609 8.7742C115.004 8.7742 114.513 8.28284 114.513 7.67742C114.513 7.072 115.004 6.58065 115.609 6.58065C116.215 6.58065 116.706 7.072 116.706 7.67742ZM111.222 2.19355C111.828 2.19355 112.319 2.68491 112.319 3.29033C112.319 3.89574 111.828 4.3871 111.222 4.3871C110.617 4.3871 110.126 3.89574 110.126 3.29033C110.126 2.68491 110.617 2.19355 111.222 2.19355ZM118.9 5.48388C118.9 6.0893 118.408 6.58065 117.803 6.58065C117.198 6.58065 116.706 6.0893 116.706 5.48388C116.706 4.87846 117.198 4.3871 117.803 4.3871C118.408 4.3871 118.9 4.87846 118.9 5.48388ZM117.051 2.53794L116.362 1.84916C116.148 1.63529 115.867 1.52781 115.586 1.52781C115.317 1.52781 115.047 1.62652 114.835 1.82613L104.199 11.8364C103.187 11.2869 102.035 10.9677 100.803 10.9677C98.2804 10.9677 96.0682 12.2817 94.8014 14.2592C94.7904 14.2592 94.7806 14.2581 94.7707 14.2581C89.3186 14.2581 84.8997 18.677 84.8997 24.129C84.8997 29.5811 89.3186 34 94.7707 34C100.223 34 104.642 29.5811 104.642 24.129C104.642 24.1192 104.641 24.1093 104.641 24.0983C106.618 22.8316 107.932 20.6194 107.932 18.0968C107.932 16.8651 107.613 15.7124 107.063 14.7012L117.074 4.06465C117.48 3.63361 117.47 2.9569 117.051 2.53794ZM104.048 23.1748L103.543 23.4984V24.0983L103.544 24.1565L103.545 24.1641C103.525 28.9867 99.5965 32.9032 94.7707 32.9032C89.9328 32.9032 85.9965 28.9669 85.9965 24.129C85.9965 19.3021 89.9153 15.3724 94.7378 15.3548L94.7586 15.3559H95.4002L95.7238 14.8503C96.8425 13.1065 98.741 12.0645 100.803 12.0645C101.713 12.0645 102.571 12.2762 103.345 12.6392L97.7868 17.8708C97.336 18.2953 97.3251 19.0071 97.7627 19.4447L99.4539 21.1359C99.6689 21.3509 99.9486 21.4573 100.229 21.4573C100.521 21.4573 100.812 21.3421 101.028 21.1118L106.259 15.5534C106.624 16.3288 106.835 17.1865 106.835 18.0968C106.835 20.1587 105.793 22.0572 104.048 23.1748ZM100.23 20.3605L98.5392 18.6693L115.585 2.62458H115.586L116.275 3.31336L100.23 20.3605ZM94.7707 20.8387C92.9533 20.8387 91.4804 22.3117 91.4804 24.129C91.4804 25.9464 92.9533 27.4194 94.7707 27.4194C96.588 27.4194 98.061 25.9464 98.061 24.129C98.061 22.3117 96.588 20.8387 94.7707 20.8387ZM94.7707 26.3226C93.561 26.3226 92.5771 25.3388 92.5771 24.129C92.5771 22.9193 93.5609 21.9355 94.7707 21.9355C95.9804 21.9355 96.9642 22.9193 96.9642 24.129C96.9642 25.3388 95.9804 26.3226 94.7707 26.3226Z" fill="#fff"/>
<path d="M188.122 82.2655C187.654 81.8469 186.552 82.1976 185.276 82.8806C184.88 83.0921 184.469 83.3351 184.054 83.5974C183.547 81.2543 182.78 79.0391 181.845 79.0098C181.725 79.0061 181.606 79.0382 181.488 79.1013C180.602 79.5753 179.761 81.8144 179.168 84.0297C177.344 81.8154 174.874 79.3452 173.853 79.8918C172.831 80.4385 173.515 83.8638 174.343 86.6097C172.171 85.8749 169.842 85.3304 168.956 85.8044C168.838 85.8675 168.745 85.9485 168.682 86.0501C168.187 86.8447 169.605 88.7111 171.273 90.4332C170.824 90.6334 170.393 90.8411 169.998 91.0521C168.722 91.7351 167.819 92.4565 167.907 93.0781C168.084 94.3227 172.161 94.8311 175.135 94.931L172.844 96.1567C172.323 96.4353 172.126 97.0828 172.404 97.602L173.913 100.424C174.191 100.943 174.839 101.138 175.36 100.86L180.329 107.879C179.808 108.158 179.611 108.806 179.889 109.325C180.722 110.883 182.665 111.469 184.229 110.632L193.665 105.584C195.228 104.748 195.82 102.807 194.986 101.248C194.709 100.729 194.06 100.534 193.539 100.812L190.458 92.783C190.979 92.5043 191.176 91.8568 190.898 91.3376L189.389 88.5159C189.111 87.9967 188.463 87.8015 187.942 88.0801L185.651 89.3057C187.219 86.7767 189.059 83.1033 188.122 82.2655ZM193.162 104.645L183.726 109.692C182.684 110.25 181.389 109.86 180.833 108.821L194.043 101.754C194.599 102.793 194.205 104.087 193.162 104.645ZM192.589 101.322L181.281 107.371L176.312 100.352L189.507 93.2927L192.589 101.322ZM189.955 91.8433L174.857 99.9199L173.348 97.0982L188.446 89.0216L189.955 91.8433ZM183.694 90.3536L177.094 93.8845C174.396 94.0875 170.232 93.4556 169.129 92.9072C169.324 92.7206 169.721 92.4116 170.502 91.9937C170.858 91.8033 171.264 91.6068 171.707 91.4083L173.103 90.7863L172.042 89.6913C170.422 88.0175 169.9 87.1042 169.731 86.6974C170.274 86.6646 171.571 86.7995 173.997 87.6211L175.966 88.2877L175.366 86.2994C174.499 83.4233 174.331 81.6559 174.428 80.9669C175.054 81.2693 176.431 82.3895 178.341 84.7068L179.662 86.3096L180.201 84.3012C180.865 81.8241 181.473 80.6714 181.799 80.2389C182.044 80.6038 182.514 81.5454 183.007 83.8243L183.331 85.3135L184.623 84.4978C185.034 84.2376 185.424 84.0101 185.778 83.8203C186.56 83.4023 187.036 83.2443 187.3 83.1851C187.146 84.4073 185.36 88.2224 183.694 90.3536Z" fill="#fff"/>
<path d="M201.112 24.2989C200.464 23.8322 199.659 23.5498 198.749 23.5544L189.564 23.5961C190.06 21.5389 189.312 19.2948 187.489 17.9819L185.311 16.4133C183.489 15.1003 181.123 15.1014 179.329 16.2236L176.46 7.49887C176.175 6.63385 175.652 5.95943 175.004 5.49277C173.311 4.27317 170.76 4.47265 169.369 6.40312L161.356 17.5276C159.965 19.4591 160.583 21.9406 162.277 23.161C162.925 23.6277 163.731 23.9101 164.64 23.9055L173.824 23.863C173.329 25.922 174.077 28.1661 175.9 29.4791L178.077 31.0477C179.9 32.3606 182.266 32.3596 184.06 31.2374L186.929 39.9621C187.213 40.8271 187.735 41.5007 188.383 41.9674C190.077 43.1878 192.628 42.9875 194.019 41.057L202.033 29.9315C203.424 28.0018 202.805 25.5185 201.112 24.2989ZM170.458 7.18742C171.43 5.83838 173.167 5.82316 174.22 6.58158C174.67 6.90551 175.003 7.36747 175.184 7.91776L175.437 8.68703L168.574 9.80275L170.458 7.18742ZM167.465 11.3423L175.862 9.97723L176.938 13.2496L164.653 15.2468L167.465 11.3423ZM174.297 22.5212L164.634 22.5645C164.055 22.5674 163.511 22.3972 163.061 22.0733C162.924 21.9744 162.797 21.8596 162.68 21.7325L176.48 19.4899L174.297 22.5212ZM177.589 17.9503L162.014 20.4823C161.848 19.7873 161.942 19.0098 162.444 18.3129L163.544 16.7864L177.363 14.5397L178.204 17.0967L177.589 17.9503ZM178.908 18.4156C180.205 16.6147 182.726 16.2048 184.527 17.5021L184.846 17.7319L178.678 18.7346L178.908 18.4156ZM175.15 24.1148C175.271 23.6451 175.47 23.1879 175.77 22.7709L177.569 20.2742L186.386 18.8409L186.705 19.0707C187.687 19.7781 188.238 20.8498 188.342 21.9701L175.15 24.1148ZM184.481 29.0453C183.184 30.8462 180.663 31.2561 178.862 29.9589L178.543 29.7291L184.711 28.7263L184.481 29.0453ZM185.82 27.1867L177.003 28.62L176.684 28.3902C175.702 27.6828 175.151 26.6111 175.047 25.4908L188.239 23.3462C188.117 23.8158 187.919 24.273 187.618 24.6901L185.82 27.1867ZM189.092 24.9398L198.755 24.8964C199.334 24.8936 199.878 25.0638 200.328 25.3877C200.465 25.4865 200.592 25.6013 200.709 25.7285L186.909 27.971L189.092 24.9398ZM192.931 40.2735C191.959 41.6226 190.222 41.6378 189.169 40.8794C188.719 40.5554 188.385 40.0935 188.204 39.5432L187.952 38.7739L194.815 37.6582L192.931 40.2735ZM195.924 36.1186L187.526 37.4837L186.45 34.2114L198.736 32.2141L195.924 36.1186ZM199.845 30.6745L186.025 32.9212L185.185 30.3642L185.8 29.5106L201.375 26.9786C201.541 27.6736 201.447 28.4511 200.945 29.148L199.845 30.6745Z" fill="#fff"/>
<path d="M85.8876 87.9344C85.7149 87.6638 85.6562 86.9834 85.6391 86.4214C85.6267 86.0168 86.0482 85.7471 86.4106 85.9279C86.9127 86.1795 87.5048 86.5187 87.6775 86.7893C87.9931 87.2839 87.8484 87.9418 87.3544 88.2579C86.8604 88.5739 86.2033 88.429 85.8876 87.9344ZM84.6696 89.9755C85.1636 89.6594 85.3083 89.0015 84.9927 88.5069C84.82 88.2363 84.2279 87.8971 83.7258 87.6455C83.3643 87.4641 82.9428 87.7338 82.9543 88.139C82.9714 88.7009 83.0301 89.3814 83.2028 89.652C83.5185 90.1466 84.1756 90.2915 84.6696 89.9755ZM81.9848 91.693C82.4788 91.377 82.6235 90.7191 82.3079 90.2245C82.1352 89.9539 81.5431 89.6147 81.041 89.3631C80.6795 89.1817 80.258 89.4514 80.2696 89.8566C80.2866 90.4185 80.3453 91.099 80.518 91.3696C80.8337 91.8642 81.4908 92.0091 81.9848 91.693ZM79.3 93.4106C79.794 93.0946 79.9387 92.4367 79.6231 91.9421C79.4504 91.6715 78.8583 91.3323 78.3562 91.0806C77.9947 90.8993 77.5732 91.169 77.5847 91.5742C77.6018 92.1361 77.6605 92.8166 77.8332 93.0872C78.1489 93.5817 78.806 93.7267 79.3 93.4106ZM76.6152 95.1282C77.1092 94.8122 77.2539 94.1543 76.9383 93.6597C76.7656 93.3891 76.1735 93.0499 75.6714 92.7982C75.3099 92.6169 74.8884 92.8865 74.9 93.2917C74.917 93.8537 74.9757 94.5341 75.1484 94.8047C75.4641 95.2993 76.1212 95.4442 76.6152 95.1282ZM98.0936 81.3876C98.5876 81.0715 98.7323 80.4136 98.4167 79.919C98.244 79.6484 97.6519 79.3092 97.1498 79.0576C96.7882 78.8762 96.3667 79.1459 96.3783 79.5511C96.3954 80.113 96.4541 80.7935 96.6268 81.0641C96.9424 81.5587 97.5996 81.7036 98.0936 81.3876ZM95.4088 83.1051C95.9028 82.7891 96.0475 82.1312 95.7319 81.6366C95.5592 81.366 94.9671 81.0268 94.465 80.7751C94.1035 80.5938 93.6819 80.8635 93.6935 81.2687C93.7106 81.8306 93.7693 82.5111 93.942 82.7816C94.2576 83.2762 94.9148 83.4212 95.4088 83.1051ZM92.724 84.8227C93.218 84.5067 93.3627 83.8488 93.0471 83.3542C92.8744 83.0836 92.2823 82.7444 91.7802 82.4927C91.4186 82.3114 90.9972 82.581 91.0087 82.9862C91.0258 83.5482 91.0845 84.2286 91.2572 84.4992C91.5729 84.9938 92.23 85.1387 92.724 84.8227ZM90.0392 86.5403C90.5332 86.2243 90.6779 85.5664 90.3623 85.0718C90.1896 84.8012 89.5975 84.4619 89.0954 84.2103C88.7339 84.029 88.3124 84.2986 88.3239 84.7038C88.341 85.2658 88.3997 85.9462 88.5724 86.2168C88.8881 86.7114 89.5452 86.8563 90.0392 86.5403ZM101.027 82.0345L102.171 83.8265C105.96 89.7644 104.224 97.6548 98.2937 101.449L99.4374 103.241L100.332 102.668C101.815 101.72 103.785 102.154 104.733 103.639C105.048 104.133 104.904 104.791 104.41 105.107L95.4602 110.833C94.9662 111.149 94.3091 111.004 93.9934 110.509C93.0459 109.025 93.4798 107.052 94.9627 106.104L95.8577 105.531L94.714 103.739C88.7833 107.533 80.9023 105.795 77.1127 99.8573L75.969 98.0653C75.6534 97.5707 75.7981 96.9128 76.2921 96.5967L99.5604 81.711C100.054 81.395 100.711 81.5399 101.027 82.0345ZM100.132 82.607L98.3423 83.7521L99.486 85.5441C102.329 89.9982 101.027 95.9149 96.5782 98.761L96.1307 99.0472C95.8837 99.2052 95.5551 99.1328 95.3973 98.8855C95.2395 98.6382 95.3119 98.3092 95.5589 98.1512L96.0063 97.8649C99.9601 95.3355 101.117 90.0752 98.5911 86.1166L97.4474 84.3246L95.6575 85.4697L96.8012 87.2617C98.6963 90.2311 97.8285 94.1756 94.8627 96.0729L94.4152 96.3592C94.1682 96.5172 93.8396 96.4447 93.6818 96.1974C93.524 95.9501 93.5963 95.6212 93.8433 95.4632L94.2908 95.1769C96.7617 93.5962 97.4851 90.3081 95.9063 87.8342L94.7626 86.0422L92.9727 87.1873L94.1164 88.9793C95.0639 90.464 94.63 92.4362 93.1471 93.3849L92.6997 93.6712C92.4527 93.8292 92.1241 93.7567 91.9663 93.5094C91.8084 93.2621 91.8808 92.9332 92.1278 92.7752L92.5753 92.4889C93.5642 91.8563 93.8534 90.5419 93.2215 89.5518L92.0778 87.7598L90.2879 88.9049L91.1457 90.2489C91.3035 90.4962 91.2311 90.8251 90.9841 90.9831C90.7371 91.1412 90.4086 91.0687 90.2508 90.8214L89.393 89.4774L87.6031 90.6224L88.4609 91.9665C88.6187 92.2138 88.5463 92.5427 88.2993 92.7007C88.0523 92.8587 87.7238 92.7863 87.566 92.539L86.7082 91.195L84.9183 92.34L86.062 94.132C86.6939 95.1221 88.0067 95.4116 88.9956 94.779L89.443 94.4927C89.69 94.3347 90.0186 94.4072 90.1764 94.6545C90.3342 94.9018 90.2619 95.2307 90.0149 95.3888L89.5674 95.675C88.0845 96.6237 86.1146 96.1893 85.1671 94.7046L84.0234 92.9126L82.2335 94.0576L83.3772 95.8496C84.9561 98.3235 88.2402 99.0478 90.7111 97.467L91.1585 97.1808C91.4055 97.0228 91.7341 97.0952 91.8919 97.3425C92.0497 97.5898 91.9774 97.9188 91.7304 98.0768L91.2829 98.363C88.3171 100.26 84.3774 99.3915 82.4823 96.4222L81.3386 94.6301L79.5487 95.7752L80.6924 97.5672C83.2188 101.526 88.4728 102.684 92.4266 100.155L92.8741 99.8688C93.1211 99.7108 93.4496 99.7832 93.6074 100.031C93.7653 100.278 93.6929 100.607 93.4459 100.765L92.9984 101.051C88.5497 103.897 82.6401 102.594 79.7975 98.1398L78.6538 96.3477L76.8639 97.4928L78.0076 99.2848C81.4815 104.728 88.7054 106.321 94.1421 102.843L95.037 102.271L97.3244 105.855L95.5345 107C94.5474 107.631 94.2576 108.948 94.8883 109.937L103.838 104.211C103.207 103.223 101.891 102.933 100.904 103.564L99.1142 104.71L96.8269 101.126L97.7218 100.553C103.159 97.0749 104.75 89.8423 101.276 84.3991L100.132 82.607Z" fill="#fff"/>
<path d="M8.24706 72.8555C-0.385093 80.0091 -1.58389 92.8077 5.56968 101.44C7.9542 104.317 12.2204 104.717 15.0978 102.332L20.071 98.211L25.517 107.898C27.069 110.659 30.7418 111.339 33.1803 109.318L39.4469 104.125C41.8853 102.104 41.8975 98.3703 39.4741 96.3315L30.9657 89.1824L35.939 85.061C38.8163 82.6765 39.2159 78.4103 36.8314 75.5329C29.6778 66.9008 16.8792 65.702 8.24706 72.8555ZM14.3137 72.2223C16.0991 74.3768 15.7988 77.583 13.6443 79.3684C11.4899 81.1538 8.28367 80.8535 6.49825 78.699C6.28667 78.4438 6.10376 78.1647 5.94625 77.858C5.99191 77.7938 6.03866 77.7309 6.08432 77.6667C6.46614 77.1305 6.87908 76.6214 7.31297 76.1322C7.42834 76.0036 7.53808 75.8709 7.65669 75.7462C8.18262 75.1852 8.73513 74.6482 9.3265 74.1581C9.91787 73.668 10.5481 73.2249 11.1971 72.8123C11.344 72.7191 11.4937 72.6346 11.6401 72.5462C12.2014 72.2107 12.7795 71.9008 13.3761 71.6239C13.4477 71.5909 13.5171 71.5554 13.5897 71.5237C13.8619 71.7355 14.1021 71.967 14.3137 72.2223ZM38.3843 97.6279C39.1538 98.2755 39.5948 99.2239 39.5908 100.229C39.5868 101.234 39.1412 102.181 38.3662 102.824L32.0995 108.017C31.3245 108.659 30.3135 108.921 29.3226 108.739C28.3317 108.556 27.4828 107.947 26.9907 107.07L21.3957 97.1132L29.6423 90.2791L38.3843 97.6279ZM34.8595 83.7585L14.0183 101.03C11.8639 102.815 8.65767 102.515 6.87224 100.36C1.83982 94.2878 1.34406 85.9453 4.96247 79.4335C5.04317 79.5468 5.105 79.6691 5.19567 79.7785C7.58019 82.6559 11.8464 83.0555 14.7238 80.671C17.6012 78.2864 18.0008 74.0202 15.6162 71.1428C15.5256 71.0334 15.4194 70.9478 15.3205 70.8496C22.3923 68.5023 30.4964 70.5398 35.5288 76.6124C37.3143 78.7668 37.0139 81.973 34.8595 83.7585ZM8.21094 86.0683C6.05258 87.8569 5.75293 91.056 7.54159 93.2143C9.33025 95.3727 12.5293 95.6723 14.6877 93.8837C16.846 92.095 17.1457 88.896 15.357 86.7376C13.5684 84.5792 10.3693 84.2796 8.21094 86.0683ZM13.6082 92.5811C12.1715 93.7718 10.0348 93.5716 8.84417 92.1349C7.65354 90.6982 7.85366 88.5615 9.2904 87.3708C10.7271 86.1802 12.8638 86.3803 14.0545 87.8171C15.2451 89.2538 15.045 91.3905 13.6082 92.5811ZM21.2367 75.2737C19.0783 77.0623 18.7787 80.2614 20.5673 82.4198C22.356 84.5781 25.555 84.8778 27.7134 83.0891C29.8718 81.3005 30.1714 78.1014 28.3827 75.943C26.5941 73.7847 23.395 73.485 21.2367 75.2737ZM26.6339 81.7865C25.1972 82.9772 23.0605 82.7771 21.8699 81.3403C20.6793 79.9036 20.8794 77.7669 22.3161 76.5763C23.7529 75.3856 25.8895 75.5858 27.0802 77.0225C28.2708 78.4592 28.0707 80.5959 26.6339 81.7865Z" fill="#fff"/>
<path d="M26.6884 13.1364C27.8797 16.9811 31.9759 19.1394 35.8206 17.9481C39.6653 16.7569 41.8236 12.6607 40.6324 8.81595C39.9525 6.62169 38.4299 4.63573 32.2857 6.53945C26.1415 8.44318 26.009 10.9434 26.6884 13.1364ZM39.3647 9.20872C40.3392 12.3537 38.5728 15.706 35.4278 16.6805C32.2829 17.6549 28.9305 15.8886 27.9561 12.7436C27.5653 11.4823 26.9742 9.57453 32.6785 7.80709C38.3828 6.03965 38.9739 7.94743 39.3647 9.20872ZM13.2717 12.4322C7.1275 14.3359 6.99453 16.8348 7.6744 19.0291C8.86565 22.8738 12.9618 25.0321 16.8066 23.8408C20.6513 22.6496 22.8096 18.5534 21.6183 14.7087C20.9384 12.5144 19.4146 10.5288 13.2717 12.4322ZM16.4134 22.5719C13.2684 23.5464 9.91609 21.78 8.94165 18.635C8.55085 17.3737 7.96013 15.4672 13.6645 13.6998C19.3688 11.9324 19.9595 13.8389 20.3507 15.1014C21.3251 18.2464 19.5584 21.5975 16.4134 22.5719ZM31.5006 4.00547C28.4481 4.95124 26.3472 6.17459 25.1077 7.73402C24.2085 7.83619 23.3146 8.02283 22.445 8.29227C21.5615 8.56602 20.7013 8.92423 19.8806 9.36051C17.9741 8.77171 15.5449 8.94918 12.4862 9.89692L2.97894 12.8426C2.27921 13.0595 1.88727 13.8033 2.10408 14.503L2.5644 15.9887C2.87665 16.9965 3.5769 17.8396 4.51043 18.3325L4.71261 18.438L5.13915 19.8146C6.76322 25.0562 12.3504 28.0002 17.5921 26.3761C18.2018 26.1872 18.8024 25.9372 19.3776 25.6325C23.5228 23.4382 25.522 18.3396 24.1339 13.8598C25.522 18.3396 30.0507 21.4142 34.7117 20.88C35.3585 20.806 35.9964 20.6723 36.6074 20.483C41.8503 18.8585 44.793 13.2717 43.1689 8.03003L42.7423 6.65339L42.8482 6.45248C43.3399 5.51934 43.4408 4.42803 43.1281 3.41899L42.6682 1.9346C42.4514 1.23487 41.7075 0.842928 41.0078 1.05974L31.5006 4.00547ZM41.8605 3.81176C42.0687 4.4836 42.0011 5.2117 41.673 5.83434L41.3112 6.52301L41.9004 8.42446C43.3104 12.9752 40.7646 17.807 36.2138 19.217C35.689 19.3796 35.1362 19.4967 34.5605 19.5625C30.495 20.0275 26.5869 17.3913 25.4039 13.4746C25.4039 13.4746 24.8321 11.6289 23.5644 12.0217C22.2968 12.4145 22.8691 14.2614 22.8691 14.2614C24.1078 18.1609 22.3724 22.5456 18.757 24.4591C18.245 24.7303 17.7241 24.9459 17.2006 25.1081C12.6498 26.5181 7.81807 23.9722 6.40805 19.4214C6.18408 18.7031 5.81764 17.5204 5.81764 17.5204L5.13023 17.1582C4.50719 16.8288 4.0402 16.2678 3.83164 15.5947L3.37172 14.1103C3.37172 14.1103 10.5034 11.9006 12.8789 11.1645C15.5802 10.3276 18.1222 9.99845 19.997 10.8166C20.5777 10.4352 21.8478 9.86664 22.8365 9.56029C23.8075 9.25943 24.8131 9.07013 25.8308 9.00071C26.9404 7.25927 29.1984 6.1081 31.8934 5.27309L41.4006 2.32736L41.8605 3.81176Z" fill="#fff"/>
</g>
</g>
<defs>
<clipPath id="clip0_2_295">
<rect width="201.9" height="124" fill="white" transform="translate(0.899704)"/>
</clipPath>
</defs>
</svg>
