<svg width="598" height="304" viewBox="0 0 598 304" fill="none" xmlns="http://www.w3.org/2000/svg">
<g clip-path="url(#clip0_5_4290)">
<path d="M93.6614 259.559C93.6614 267.699 87.8801 272.47 78.226 272.47H66.046V285.942H64.9235V246.648H78.226C87.8801 246.648 93.6614 251.419 93.6614 259.559ZM92.5388 259.559C92.5388 252.037 87.5433 247.715 78.3382 247.715H66.046V271.403H78.3382C87.5433 271.403 92.5388 267.081 92.5388 259.559Z" fill="black"/>
<path d="M103.034 282.125L103.708 281.227C105.785 283.248 109.714 285.044 114.372 285.044C121.276 285.044 124.027 282.405 124.027 278.588C124.027 268.877 104.157 275.501 104.157 264.217C104.157 260.345 107.244 256.752 114.429 256.752C118.021 256.752 121.838 257.93 124.027 259.727L123.353 260.625C121.052 258.773 117.684 257.819 114.429 257.819C108.03 257.819 105.336 260.625 105.336 264.217C105.336 274.21 125.149 267.642 125.149 278.588C125.149 282.967 121.613 286.111 114.372 286.111C109.658 286.111 105.223 284.426 103.034 282.125Z" fill="black"/>
<path d="M158.771 256.921L143.335 290.601C141.146 295.372 138.564 297 135.141 297C132.615 297 130.426 296.158 128.854 294.419L129.696 293.52C131.268 295.204 132.895 295.934 135.197 295.934C138.003 295.934 140.192 294.643 142.213 290.264L144.233 285.83L130.931 256.921H132.222L144.851 284.65L157.48 256.921H158.771Z" fill="black"/>
<path d="M170.502 246.648H185.376C197.78 246.648 206.087 254.956 206.087 266.295C206.087 277.634 197.78 285.942 185.376 285.942H170.502V246.648ZM185.263 284.875C197.275 284.875 204.965 277.016 204.965 266.295C204.965 255.574 197.275 247.715 185.263 247.715H171.624V284.875H185.263Z" fill="black"/>
<path d="M145.604 226.572V230H95.9648V226.572H145.604ZM98.1865 137.578V230H94.6953V137.578H98.1865ZM227.194 226.572V230H172.16V226.572H227.194ZM174.381 137.578V230H170.954V137.578H174.381ZM220.719 180.742V184.17H172.16V180.742H220.719ZM227.194 137.578V141.006H172.16V137.578H227.194ZM253.75 137.578H283.203C289.085 137.578 294.311 138.615 298.882 140.688C303.452 142.72 307.028 145.724 309.609 149.702C312.233 153.638 313.545 158.483 313.545 164.238C313.545 168.724 312.571 172.786 310.625 176.426C308.678 180.023 306.076 182.985 302.817 185.312C299.559 187.64 295.919 189.1 291.899 189.692L289.931 190.454H254.575L254.448 187.026H286.313C291.603 187.026 296.004 185.926 299.516 183.726C303.029 181.525 305.674 178.69 307.451 175.22C309.228 171.707 310.117 168.047 310.117 164.238C310.117 159.372 309.017 155.225 306.816 151.797C304.616 148.327 301.484 145.661 297.422 143.799C293.401 141.937 288.662 141.006 283.203 141.006H257.178V230H253.75V137.578ZM313.799 230L288.471 189.248L292.471 189.121L317.417 229.111V230H313.799ZM414.813 137.578V230H411.385L351.717 143.418V230H348.226V137.578H351.717L411.385 223.97V137.578H414.813ZM505.607 226.572V230H450.573V226.572H505.607ZM452.795 137.578V230H449.367V137.578H452.795ZM499.132 180.742V184.17H450.573V180.742H499.132ZM505.607 137.578V141.006H450.573V137.578H505.607ZM532.163 137.578H561.616C567.498 137.578 572.725 138.615 577.295 140.688C581.865 142.72 585.441 145.724 588.022 149.702C590.646 153.638 591.958 158.483 591.958 164.238C591.958 168.724 590.985 172.786 589.038 176.426C587.091 180.023 584.489 182.985 581.23 185.312C577.972 187.64 574.333 189.1 570.312 189.692L568.345 190.454H532.988L532.861 187.026H564.727C570.016 187.026 574.417 185.926 577.93 183.726C581.442 181.525 584.087 178.69 585.864 175.22C587.642 171.707 588.53 168.047 588.53 164.238C588.53 159.372 587.43 155.225 585.229 151.797C583.029 148.327 579.897 145.661 575.835 143.799C571.815 141.937 567.075 141.006 561.616 141.006H535.591V230H532.163V137.578ZM592.212 230L566.885 189.248L570.884 189.121L595.83 229.111V230H592.212Z" fill="black"/>
<path d="M23.7986 107.199H69.9043V117.691H10.9025V20.3908H23.7986L23.7986 107.199Z" stroke="black" stroke-width="1.30474" stroke-miterlimit="10"/>
<path d="M107.882 117.691H95.0526V20.3908H107.882V117.691Z" stroke="black" stroke-width="1.30474" stroke-miterlimit="10"/>
<path d="M215.687 117.691H202.791L153.812 42.7113V117.691H140.915V20.3908H153.812L202.925 95.7051V20.3908H215.687V117.691Z" stroke="black" stroke-width="1.30474" stroke-miterlimit="10"/>
<path d="M248.052 117.691V20.3908H275.515C283.978 20.3908 291.462 22.262 297.966 26.0046C304.47 29.7466 309.493 35.071 313.035 41.9758C316.576 48.882 318.368 56.8117 318.414 65.7663V71.9813C318.414 81.1595 316.643 89.2006 313.101 96.1059C309.56 103.012 304.504 108.313 297.933 112.01C291.362 115.709 283.711 117.602 274.98 117.691L248.052 117.691ZM260.882 30.8829V107.199H274.379C284.268 107.199 291.963 104.123 297.465 97.9699C302.967 91.8165 305.718 83.0536 305.718 71.6827V65.9973C305.718 54.9395 303.122 46.3447 297.933 40.2137C292.743 34.0822 285.382 30.9724 275.849 30.8829H260.882Z" stroke="black" stroke-width="1.30474" stroke-miterlimit="10"/>
<path d="M376.036 74.3205C365.033 71.1573 357.026 67.27 352.015 62.6588C347.003 58.048 344.497 52.357 344.497 45.5846C344.497 37.9224 347.56 31.5846 353.685 26.5725C359.809 21.5604 367.773 19.0546 377.573 19.0546C384.255 19.0546 390.213 20.347 395.448 22.9304C400.682 25.5147 404.736 29.0783 407.609 33.6225C410.482 38.1671 411.919 43.1349 411.919 48.525H399.022C399.022 42.6236 397.151 37.9854 393.41 34.6095C389.668 31.2344 384.389 29.5462 377.573 29.5462C371.247 29.5462 366.314 30.9414 362.773 33.7311C359.231 36.5214 357.46 40.3922 357.46 45.3454C357.46 49.3184 359.141 52.6779 362.505 55.4216C365.868 58.1671 371.593 60.677 379.678 62.9532C387.763 65.2299 394.088 67.738 398.655 70.4775C403.221 73.2175 406.607 76.415 408.811 80.0676C411.017 83.7211 412.119 88.0196 412.119 92.9651C412.119 100.85 409.046 107.165 402.898 111.911C396.751 116.655 388.532 119.028 378.242 119.028C371.559 119.028 365.322 117.746 359.532 115.185C353.741 112.624 349.275 109.115 346.135 104.66C342.994 100.205 341.424 95.1481 341.424 89.4901H354.32C354.32 95.3709 356.491 100.015 360.835 103.423C365.178 106.832 370.98 108.535 378.242 108.535C385.012 108.535 390.202 107.155 393.81 104.393C397.419 101.631 399.223 97.8662 399.223 93.0988C399.223 88.3319 397.553 84.645 394.211 82.0388C390.87 79.4325 384.812 76.8596 376.036 74.3205Z" stroke="black" stroke-width="1.30474" stroke-miterlimit="10"/>
<path d="M493.129 72.7163H450.966V107.199H499.945V117.691H438.136V20.3908H499.277V30.8829H450.966V62.2246H493.129V72.7163Z" stroke="black" stroke-width="1.30474" stroke-miterlimit="10"/>
<path d="M555.162 69.2413L580.554 20.3908H595.121L561.577 81.4038V117.691H548.748V81.4038L515.204 20.3908H529.904L555.162 69.2413Z" stroke="black" stroke-width="1.30474" stroke-miterlimit="10"/>
<path d="M371.52 258.679C371.52 258.308 371.458 257.977 371.334 257.686C371.21 257.395 371.006 257.136 370.722 256.907C370.443 256.672 370.066 256.455 369.59 256.257C369.12 256.053 368.532 255.852 367.827 255.654C367.153 255.463 366.544 255.252 365.999 255.023C365.455 254.795 364.988 254.532 364.599 254.235C364.215 253.938 363.921 253.592 363.717 253.196C363.513 252.794 363.411 252.327 363.411 251.795C363.411 251.275 363.522 250.802 363.745 250.375C363.968 249.949 364.28 249.581 364.682 249.271C365.09 248.962 365.57 248.724 366.12 248.557C366.677 248.39 367.286 248.307 367.948 248.307C368.894 248.307 369.71 248.486 370.397 248.845C371.09 249.203 371.625 249.689 372.002 250.301C372.385 250.907 372.577 251.588 372.577 252.342H371.436C371.436 251.755 371.297 251.232 371.019 250.774C370.746 250.311 370.351 249.949 369.831 249.689C369.318 249.423 368.69 249.29 367.948 249.29C367.206 249.29 366.581 249.404 366.074 249.633C365.573 249.856 365.192 250.156 364.933 250.533C364.679 250.904 364.552 251.319 364.552 251.776C364.552 252.098 364.614 252.395 364.738 252.667C364.861 252.933 365.062 253.183 365.341 253.418C365.625 253.647 365.999 253.864 366.463 254.068C366.927 254.266 367.499 254.454 368.18 254.634C368.897 254.832 369.534 255.051 370.091 255.292C370.647 255.534 371.117 255.812 371.501 256.127C371.884 256.437 372.175 256.799 372.373 257.213C372.571 257.627 372.67 258.11 372.67 258.66C372.67 259.211 372.552 259.705 372.317 260.145C372.089 260.577 371.764 260.945 371.343 261.249C370.929 261.552 370.437 261.784 369.868 261.944C369.305 262.105 368.69 262.186 368.022 262.186C367.422 262.186 366.825 262.108 366.231 261.954C365.638 261.799 365.093 261.561 364.599 261.239C364.11 260.911 363.717 260.491 363.42 259.978C363.13 259.464 362.984 258.852 362.984 258.141H364.116C364.116 258.71 364.231 259.189 364.459 259.579C364.688 259.968 364.991 260.284 365.369 260.525C365.752 260.766 366.173 260.942 366.63 261.054C367.094 261.159 367.558 261.211 368.022 261.211C368.733 261.211 369.349 261.106 369.868 260.896C370.394 260.686 370.799 260.392 371.083 260.015C371.374 259.631 371.52 259.186 371.52 258.679ZM377.502 247.75V262H376.398V247.75H377.502ZM377.251 256.359L376.76 256.081C376.797 255.487 376.917 254.931 377.122 254.411C377.326 253.892 377.601 253.434 377.947 253.038C378.3 252.642 378.711 252.333 379.181 252.11C379.657 251.888 380.183 251.776 380.758 251.776C381.259 251.776 381.708 251.844 382.103 251.98C382.499 252.117 382.836 252.333 383.115 252.63C383.393 252.927 383.603 253.307 383.746 253.771C383.894 254.235 383.968 254.801 383.968 255.469V262H382.855V255.459C382.855 254.767 382.759 254.226 382.567 253.836C382.376 253.44 382.103 253.159 381.751 252.992C381.398 252.825 380.981 252.741 380.498 252.741C379.967 252.741 379.5 252.859 379.098 253.094C378.702 253.323 378.368 253.623 378.096 253.994C377.83 254.359 377.626 254.751 377.483 255.172C377.341 255.586 377.264 255.982 377.251 256.359ZM392.224 262.186C391.568 262.186 390.965 262.065 390.414 261.824C389.87 261.583 389.394 261.242 388.986 260.803C388.584 260.364 388.271 259.845 388.049 259.245C387.832 258.639 387.724 257.977 387.724 257.259V256.86C387.724 256.087 387.838 255.388 388.067 254.764C388.296 254.139 388.612 253.604 389.014 253.159C389.416 252.713 389.873 252.373 390.387 252.138C390.906 251.897 391.45 251.776 392.019 251.776C392.657 251.776 393.222 251.891 393.717 252.12C394.212 252.342 394.626 252.661 394.96 253.075C395.301 253.483 395.557 253.969 395.73 254.532C395.904 255.088 395.99 255.704 395.99 256.378V257.055H388.392V256.109H394.886V255.979C394.874 255.416 394.759 254.89 394.543 254.402C394.333 253.907 394.017 253.505 393.597 253.196C393.176 252.887 392.65 252.732 392.019 252.732C391.549 252.732 391.116 252.831 390.721 253.029C390.331 253.227 389.994 253.511 389.709 253.882C389.431 254.247 389.215 254.683 389.06 255.19C388.912 255.691 388.837 256.248 388.837 256.86V257.259C388.837 257.816 388.918 258.335 389.079 258.818C389.246 259.294 389.481 259.715 389.784 260.08C390.093 260.444 390.458 260.729 390.878 260.933C391.299 261.137 391.763 261.239 392.27 261.239C392.864 261.239 393.389 261.131 393.847 260.915C394.305 260.692 394.716 260.342 395.081 259.866L395.777 260.404C395.56 260.726 395.288 261.023 394.96 261.295C394.639 261.567 394.252 261.784 393.801 261.944C393.349 262.105 392.824 262.186 392.224 262.186ZM411.332 248.492L405.691 263.16H404.689L410.33 248.492H411.332ZM430.431 254.55V255.524H422.221V254.55H430.431ZM422.49 248.492V262H421.348V248.492H422.49ZM431.349 248.492V262H430.208V248.492H431.349ZM439.939 262.186C439.283 262.186 438.68 262.065 438.13 261.824C437.585 261.583 437.109 261.242 436.701 260.803C436.299 260.364 435.987 259.845 435.764 259.245C435.548 258.639 435.439 257.977 435.439 257.259V256.86C435.439 256.087 435.554 255.388 435.783 254.764C436.011 254.139 436.327 253.604 436.729 253.159C437.131 252.713 437.589 252.373 438.102 252.138C438.621 251.897 439.166 251.776 439.735 251.776C440.372 251.776 440.938 251.891 441.432 252.12C441.927 252.342 442.342 252.661 442.676 253.075C443.016 253.483 443.272 253.969 443.446 254.532C443.619 255.088 443.705 255.704 443.705 256.378V257.055H436.107V256.109H442.601V255.979C442.589 255.416 442.475 254.89 442.258 254.402C442.048 253.907 441.732 253.505 441.312 253.196C440.891 252.887 440.366 252.732 439.735 252.732C439.265 252.732 438.832 252.831 438.436 253.029C438.046 253.227 437.709 253.511 437.425 253.882C437.146 254.247 436.93 254.683 436.775 255.19C436.627 255.691 436.553 256.248 436.553 256.86V257.259C436.553 257.816 436.633 258.335 436.794 258.818C436.961 259.294 437.196 259.715 437.499 260.08C437.808 260.444 438.173 260.729 438.594 260.933C439.014 261.137 439.478 261.239 439.985 261.239C440.579 261.239 441.105 261.131 441.562 260.915C442.02 260.692 442.431 260.342 442.796 259.866L443.492 260.404C443.276 260.726 443.003 261.023 442.676 261.295C442.354 261.567 441.967 261.784 441.516 261.944C441.064 262.105 440.539 262.186 439.939 262.186ZM448.519 253.623V262H447.415V251.962H448.491L448.519 253.623ZM452.072 251.888L452.044 252.908C451.921 252.89 451.8 252.874 451.682 252.862C451.565 252.849 451.438 252.843 451.302 252.843C450.82 252.843 450.396 252.933 450.031 253.112C449.672 253.285 449.369 253.53 449.122 253.845C448.874 254.154 448.686 254.519 448.556 254.94C448.426 255.354 448.352 255.8 448.333 256.276L447.925 256.434C447.925 255.778 447.993 255.169 448.129 254.606C448.265 254.043 448.472 253.551 448.751 253.131C449.035 252.704 449.391 252.373 449.818 252.138C450.251 251.897 450.758 251.776 451.339 251.776C451.481 251.776 451.621 251.789 451.757 251.813C451.899 251.832 452.004 251.857 452.072 251.888ZM466.969 248.492L461.328 263.16H460.326L465.967 248.492H466.969ZM481.141 248.492V262H480.01V248.492H481.141ZM485.771 248.492V249.476H475.389V248.492H485.771ZM490.334 247.75V262H489.23V247.75H490.334ZM490.083 256.359L489.592 256.081C489.629 255.487 489.749 254.931 489.953 254.411C490.157 253.892 490.433 253.434 490.779 253.038C491.132 252.642 491.543 252.333 492.013 252.11C492.489 251.888 493.015 251.776 493.59 251.776C494.091 251.776 494.539 251.844 494.935 251.98C495.331 252.117 495.668 252.333 495.947 252.63C496.225 252.927 496.435 253.307 496.577 253.771C496.726 254.235 496.8 254.801 496.8 255.469V262H495.687V255.459C495.687 254.767 495.591 254.226 495.399 253.836C495.207 253.44 494.935 253.159 494.583 252.992C494.23 252.825 493.813 252.741 493.33 252.741C492.798 252.741 492.331 252.859 491.929 253.094C491.534 253.323 491.2 253.623 490.927 253.994C490.662 254.359 490.457 254.751 490.315 255.172C490.173 255.586 490.096 255.982 490.083 256.359ZM505.055 262.186C504.4 262.186 503.797 262.065 503.246 261.824C502.702 261.583 502.226 261.242 501.818 260.803C501.416 260.364 501.103 259.845 500.881 259.245C500.664 258.639 500.556 257.977 500.556 257.259V256.86C500.556 256.087 500.67 255.388 500.899 254.764C501.128 254.139 501.443 253.604 501.845 253.159C502.247 252.713 502.705 252.373 503.218 252.138C503.738 251.897 504.282 251.776 504.851 251.776C505.488 251.776 506.054 251.891 506.549 252.12C507.044 252.342 507.458 252.661 507.792 253.075C508.132 253.483 508.389 253.969 508.562 254.532C508.735 255.088 508.822 255.704 508.822 256.378V257.055H501.224V256.109H507.718V255.979C507.706 255.416 507.591 254.89 507.375 254.402C507.164 253.907 506.849 253.505 506.428 253.196C506.008 252.887 505.482 252.732 504.851 252.732C504.381 252.732 503.948 252.831 503.552 253.029C503.163 253.227 502.826 253.511 502.541 253.882C502.263 254.247 502.046 254.683 501.892 255.19C501.743 255.691 501.669 256.248 501.669 256.86V257.259C501.669 257.816 501.75 258.335 501.91 258.818C502.077 259.294 502.312 259.715 502.615 260.08C502.925 260.444 503.29 260.729 503.71 260.933C504.131 261.137 504.595 261.239 505.102 261.239C505.696 261.239 506.221 261.131 506.679 260.915C507.137 260.692 507.548 260.342 507.913 259.866L508.609 260.404C508.392 260.726 508.12 261.023 507.792 261.295C507.471 261.567 507.084 261.784 506.633 261.944C506.181 262.105 505.655 262.186 505.055 262.186ZM515.38 260.998L518.506 251.962H519.703L515.454 263.614C515.367 263.843 515.256 264.097 515.12 264.375C514.99 264.653 514.817 264.919 514.6 265.173C514.39 265.433 514.124 265.643 513.802 265.804C513.487 265.971 513.1 266.054 512.643 266.054C512.525 266.054 512.374 266.039 512.188 266.008C512.009 265.983 511.879 265.958 511.799 265.934L511.789 264.997C511.857 265.015 511.956 265.031 512.086 265.043C512.216 265.055 512.306 265.062 512.355 265.062C512.757 265.062 513.094 264.993 513.366 264.857C513.645 264.721 513.877 264.517 514.062 264.245C514.248 263.979 514.412 263.645 514.554 263.243L515.38 260.998ZM512.457 251.962L515.658 260.581L515.955 261.74L515.148 262.195L511.251 251.962H512.457ZM534.59 248.492L528.949 263.16H527.947L533.588 248.492H534.59ZM548.763 248.492V262H547.631V248.492H548.763ZM553.392 248.492V249.476H543.011V248.492H553.392ZM557.955 247.75V262H556.851V247.75H557.955ZM557.705 256.359L557.213 256.081C557.25 255.487 557.371 254.931 557.575 254.411C557.779 253.892 558.054 253.434 558.4 253.038C558.753 252.642 559.164 252.333 559.634 252.11C560.111 251.888 560.636 251.776 561.212 251.776C561.712 251.776 562.161 251.844 562.557 251.98C562.953 252.117 563.29 252.333 563.568 252.63C563.846 252.927 564.057 253.307 564.199 253.771C564.347 254.235 564.421 254.801 564.421 255.469V262H563.308V255.459C563.308 254.767 563.212 254.226 563.021 253.836C562.829 253.44 562.557 253.159 562.204 252.992C561.852 252.825 561.434 252.741 560.952 252.741C560.42 252.741 559.953 252.859 559.551 253.094C559.155 253.323 558.821 253.623 558.549 253.994C558.283 254.359 558.079 254.751 557.937 255.172C557.794 255.586 557.717 255.982 557.705 256.359ZM572.677 262.186C572.021 262.186 571.418 262.065 570.868 261.824C570.323 261.583 569.847 261.242 569.439 260.803C569.037 260.364 568.725 259.845 568.502 259.245C568.286 258.639 568.177 257.977 568.177 257.259V256.86C568.177 256.087 568.292 255.388 568.521 254.764C568.749 254.139 569.065 253.604 569.467 253.159C569.869 252.713 570.327 252.373 570.84 252.138C571.359 251.897 571.904 251.776 572.473 251.776C573.11 251.776 573.676 251.891 574.17 252.12C574.665 252.342 575.08 252.661 575.414 253.075C575.754 253.483 576.01 253.969 576.184 254.532C576.357 255.088 576.443 255.704 576.443 256.378V257.055H568.845V256.109H575.339V255.979C575.327 255.416 575.213 254.89 574.996 254.402C574.786 253.907 574.47 253.505 574.05 253.196C573.629 252.887 573.104 252.732 572.473 252.732C572.003 252.732 571.57 252.831 571.174 253.029C570.784 253.227 570.447 253.511 570.163 253.882C569.884 254.247 569.668 254.683 569.513 255.19C569.365 255.691 569.291 256.248 569.291 256.86V257.259C569.291 257.816 569.371 258.335 569.532 258.818C569.699 259.294 569.934 259.715 570.237 260.08C570.546 260.444 570.911 260.729 571.332 260.933C571.752 261.137 572.216 261.239 572.723 261.239C573.317 261.239 573.843 261.131 574.3 260.915C574.758 260.692 575.169 260.342 575.534 259.866L576.23 260.404C576.014 260.726 575.741 261.023 575.414 261.295C575.092 261.567 574.705 261.784 574.254 261.944C573.802 262.105 573.277 262.186 572.677 262.186ZM581.201 254.04V262H580.088V251.962H581.155L581.201 254.04ZM580.997 256.359L580.459 256.081C580.496 255.487 580.607 254.931 580.793 254.411C580.985 253.892 581.251 253.434 581.591 253.038C581.931 252.642 582.339 252.333 582.815 252.11C583.292 251.888 583.833 251.776 584.439 251.776C584.928 251.776 585.37 251.844 585.766 251.98C586.168 252.11 586.508 252.318 586.786 252.602C587.071 252.88 587.29 253.245 587.445 253.697C587.599 254.148 587.677 254.689 587.677 255.32V262H586.573V255.357C586.573 254.689 586.468 254.167 586.257 253.79C586.053 253.412 585.766 253.143 585.395 252.982C585.03 252.822 584.606 252.741 584.124 252.741C583.555 252.741 583.072 252.859 582.676 253.094C582.287 253.323 581.968 253.623 581.721 253.994C581.48 254.359 581.3 254.751 581.183 255.172C581.065 255.586 581.003 255.982 580.997 256.359ZM587.668 255.487L586.925 255.506C586.956 255.017 587.068 254.55 587.259 254.105C587.457 253.66 587.726 253.264 588.066 252.917C588.407 252.565 588.812 252.287 589.282 252.083C589.758 251.878 590.293 251.776 590.887 251.776C591.406 251.776 591.87 251.847 592.278 251.99C592.687 252.126 593.03 252.345 593.308 252.648C593.593 252.945 593.809 253.326 593.958 253.79C594.106 254.253 594.18 254.81 594.18 255.459V262H593.067V255.45C593.067 254.739 592.962 254.188 592.752 253.799C592.547 253.403 592.263 253.128 591.898 252.973C591.533 252.819 591.106 252.741 590.618 252.741C590.135 252.747 589.712 252.837 589.347 253.01C588.982 253.177 588.676 253.4 588.428 253.678C588.187 253.95 588.002 254.244 587.872 254.56C587.748 254.875 587.68 255.184 587.668 255.487Z" fill="black"/>
</g>
<defs>
<clipPath id="clip0_5_4290">
<rect width="598" height="304" fill="white"/>
</clipPath>
</defs>
</svg>
